<svg width="375" height="210" viewBox="0 0 375 210" fill="none" xmlns="http://www.w3.org/2000/svg">
<path d="M312.263 207.798C312.263 207.798 367.888 183.057 366.594 133.141C365.3 83.2259 312.583 60.0144 276.793 90.8324C241.004 121.65 217.842 95.8072 199.3 69.7641C180.758 43.7215 139.395 10.8547 85.1267 26.0418C28.2773 41.9509 10.7835 99.5307 16.4145 137.955C20.4594 165.554 35.2522 188.954 55.4104 206.934C56.0659 207.518 56.7371 208.096 57.4239 208.666L312.263 207.798Z" fill="#FFECAF"/>
<path d="M66.6032 101.347H38.9965V136.876H66.6032V101.347Z" fill="#FFD960"/>
<path d="M256.829 82.9445H208.706V131.075H256.829V82.9445Z" fill="#FFD960"/>
<path d="M129.116 89.0079H101.51V124.536H129.116V89.0079Z" fill="#FFD960"/>
<path d="M181.349 108.237H153.742V143.765H181.349V108.237Z" fill="#FFD960"/>
<path d="M372.528 168.941H11.3898V122.323H372.528V168.941Z" fill="#FFD960"/>
<path d="M38.9965 86.7935H11.3898V122.323H38.9965V86.7935Z" fill="#FFD960"/>
<path d="M157.669 54.3339C157.669 64.2722 149.613 72.3284 139.676 72.3284C129.739 72.3284 121.684 64.2722 121.684 54.3339C121.684 44.3955 129.739 36.3393 139.676 36.3393C149.613 36.3393 157.669 44.3955 157.669 54.3339Z" fill="#E9EDFD"/>
<path d="M143.841 46.0863C143.841 48.3863 141.976 50.2513 139.676 50.2513C137.377 50.2513 135.512 48.3863 135.512 46.0863C135.512 43.7862 137.377 41.9213 139.676 41.9213C141.976 41.9213 143.841 43.7862 143.841 46.0863Z" fill="#FFECAF"/>
<path d="M160.701 168.941H118.651V52.8625H160.701V168.941Z" fill="#FFCA25"/>
<path d="M132.707 77.6294H124.346V61.1763H132.707V77.6294Z" fill="#FFD960"/>
<path d="M153.742 77.6294H145.382V61.1763H153.742V77.6294Z" fill="#FFD960"/>
<path d="M132.707 102.713H124.346V86.2603H132.707V102.713Z" fill="#FFD960"/>
<path d="M153.742 102.713H145.382V86.2603H153.742V102.713Z" fill="#FFD960"/>
<path d="M132.707 127.797H124.346V111.344H132.707V127.797Z" fill="#FFD960"/>
<path d="M153.742 127.797H145.382V111.344H153.742V127.797Z" fill="#FFD960"/>
<path d="M132.707 152.881H124.346V136.429H132.707V152.881Z" fill="#FFD960"/>
<path d="M153.742 152.881H145.382V136.429H153.742V152.881Z" fill="#FFD960"/>
<path d="M216.334 168.941H170.601V26.0332H216.334V168.941Z" fill="#FFCA25"/>
<path d="M181.347 42.434H175.112V36.1975H181.347V42.434Z" fill="#FFD960"/>
<path d="M196.586 42.434H190.349V36.1975H196.586V42.434Z" fill="#FFD960"/>
<path d="M211.824 42.434H205.588V36.1975H211.824V42.434Z" fill="#FFD960"/>
<path d="M181.347 53.4502H175.112V47.2137H181.347V53.4502Z" fill="#FFD960"/>
<path d="M196.586 53.4502H190.349V47.2137H196.586V53.4502Z" fill="#FFD960"/>
<path d="M211.824 53.4502H205.588V47.2137H211.824V53.4502Z" fill="#FFD960"/>
<path d="M181.347 64.4663H175.112V58.2298H181.347V64.4663Z" fill="#FFD960"/>
<path d="M196.586 64.4663H190.349V58.2298H196.586V64.4663Z" fill="#FFD960"/>
<path d="M211.824 64.4663H205.588V58.2298H211.824V64.4663Z" fill="#FFD960"/>
<path d="M181.347 75.483H175.112V69.246H181.347V75.483Z" fill="#FFD960"/>
<path d="M196.586 75.483H190.349V69.246H196.586V75.483Z" fill="#FFD960"/>
<path d="M211.824 75.483H205.588V69.246H211.824V75.483Z" fill="#FFD960"/>
<path d="M181.347 86.4986H175.112V80.2621H181.347V86.4986Z" fill="#FFD960"/>
<path d="M196.586 86.4986H190.349V80.2621H196.586V86.4986Z" fill="#FFD960"/>
<path d="M211.824 86.4986H205.588V80.2621H211.824V86.4986Z" fill="#FFD960"/>
<path d="M181.347 97.5148H175.112V91.2778H181.347V97.5148Z" fill="#FFD960"/>
<path d="M196.586 97.5148H190.349V91.2778H196.586V97.5148Z" fill="#FFD960"/>
<path d="M211.824 97.5148H205.588V91.2778H211.824V97.5148Z" fill="#FFD960"/>
<path d="M181.347 108.531H175.112V102.294H181.347V108.531Z" fill="#FFD960"/>
<path d="M196.586 108.531H190.349V102.294H196.586V108.531Z" fill="#FFD960"/>
<path d="M211.824 108.531H205.588V102.294H211.824V108.531Z" fill="#FFD960"/>
<path d="M181.347 119.547H175.112V113.311H181.347V119.547Z" fill="#FFD960"/>
<path d="M196.586 119.547H190.349V113.311H196.586V119.547Z" fill="#FFD960"/>
<path d="M211.824 119.547H205.588V113.311H211.824V119.547Z" fill="#FFD960"/>
<path d="M181.347 130.563H175.112V124.326H181.347V130.563Z" fill="#FFD960"/>
<path d="M196.586 130.563H190.349V124.326H196.586V130.563Z" fill="#FFD960"/>
<path d="M211.824 130.563H205.588V124.326H211.824V130.563Z" fill="#FFD960"/>
<path d="M181.347 141.579H175.112V135.343H181.347V141.579Z" fill="#FFD960"/>
<path d="M196.586 141.579H190.349V135.343H196.586V141.579Z" fill="#FFD960"/>
<path d="M211.824 141.579H205.588V135.343H211.824V141.579Z" fill="#FFD960"/>
<path d="M181.347 152.596H175.112V146.359H181.347V152.596Z" fill="#FFD960"/>
<path d="M196.586 152.596H190.349V146.359H196.586V152.596Z" fill="#FFD960"/>
<path d="M211.824 152.596H205.588V146.359H211.824V152.596Z" fill="#FFD960"/>
<path d="M362.132 208.42H316.4V65.5117H362.132V208.42Z" fill="#FFCA25"/>
<path d="M327.147 81.9125H320.91V75.676H327.147V81.9125Z" fill="#FFD960"/>
<path d="M342.384 81.9125H336.149V75.676H342.384V81.9125Z" fill="#FFD960"/>
<path d="M357.622 81.9125H351.387V75.676H357.622V81.9125Z" fill="#FFD960"/>
<path d="M327.147 92.9292H320.91V86.6927H327.147V92.9292Z" fill="#FFD960"/>
<path d="M342.384 92.9292H336.149V86.6927H342.384V92.9292Z" fill="#FFD960"/>
<path d="M357.622 92.9292H351.387V86.6927H357.622V92.9292Z" fill="#FFD960"/>
<path d="M327.147 103.945H320.91V97.7083H327.147V103.945Z" fill="#FFD960"/>
<path d="M342.384 103.945H336.149V97.7083H342.384V103.945Z" fill="#FFD960"/>
<path d="M357.622 103.945H351.387V97.7083H357.622V103.945Z" fill="#FFD960"/>
<path d="M327.147 114.961H320.91V108.724H327.147V114.961Z" fill="#FFD960"/>
<path d="M342.384 114.961H336.149V108.724H342.384V114.961Z" fill="#FFD960"/>
<path d="M357.622 114.961H351.387V108.724H357.622V114.961Z" fill="#FFD960"/>
<path d="M327.147 125.978H320.91V119.741H327.147V125.978Z" fill="#FFD960"/>
<path d="M342.384 125.978H336.149V119.741H342.384V125.978Z" fill="#FFD960"/>
<path d="M357.622 125.978H351.387V119.741H357.622V125.978Z" fill="#FFD960"/>
<path d="M327.147 136.994H320.91V130.757H327.147V136.994Z" fill="#FFD960"/>
<path d="M342.384 136.994H336.149V130.757H342.384V136.994Z" fill="#FFD960"/>
<path d="M357.622 136.994H351.387V130.757H357.622V136.994Z" fill="#FFD960"/>
<path d="M327.147 148.009H320.91V141.773H327.147V148.009Z" fill="#FFD960"/>
<path d="M342.384 148.009H336.149V141.773H342.384V148.009Z" fill="#FFD960"/>
<path d="M357.622 148.009H351.387V141.773H357.622V148.009Z" fill="#FFD960"/>
<path d="M327.147 159.026H320.91V152.789H327.147V159.026Z" fill="#FFD960"/>
<path d="M342.384 159.026H336.149V152.789H342.384V159.026Z" fill="#FFD960"/>
<path d="M357.622 159.026H351.387V152.789H357.622V159.026Z" fill="#FFD960"/>
<path d="M327.147 170.042H320.91V163.805H327.147V170.042Z" fill="#FFD960"/>
<path d="M342.384 170.042H336.149V163.805H342.384V170.042Z" fill="#FFD960"/>
<path d="M357.622 170.042H351.387V163.805H357.622V170.042Z" fill="#FFD960"/>
<path d="M108.646 168.941H52.0833V26.0332H108.646V168.941Z" fill="#FFCA25"/>
<path d="M61.8371 122.926H58.0198V49.0075H61.8371V122.926Z" fill="#FFD960"/>
<path d="M72.055 122.926H68.2383V49.0075H72.055V122.926Z" fill="#FFD960"/>
<path d="M82.2735 122.926H78.4562V49.0075H82.2735V122.926Z" fill="#FFD960"/>
<path d="M92.492 122.926H88.6747V49.0075H92.492V122.926Z" fill="#FFD960"/>
<path d="M102.71 122.926H98.8932V49.0075H102.71V122.926Z" fill="#FFD960"/>
<path d="M108.646 41.8469H52.0833V33.9401H108.646V41.8469Z" fill="#E9EDFD"/>
<path d="M6.65065 87.0275C6.65065 88.6515 5.35241 89.9681 3.75115 89.9681C2.14967 89.9681 0.851433 88.6515 0.851433 87.0275C0.851433 85.4036 2.14967 84.0869 3.75115 84.0869C5.35241 84.0869 6.65065 85.4036 6.65065 87.0275V87.0275Z" stroke="#FFD960" stroke-width="1.70287" stroke-miterlimit="10"/>
<path d="M351.003 23.8841C351.003 25.5081 349.704 26.8247 348.103 26.8247C346.501 26.8247 345.204 25.5081 345.204 23.8841C345.204 22.2602 346.501 20.9435 348.103 20.9435C349.704 20.9435 351.003 22.2602 351.003 23.8841V23.8841Z" stroke="#FFD960" stroke-width="1.70287" stroke-miterlimit="10"/>
<path d="M214.651 54.5878C214.651 56.2716 213.305 57.6367 211.645 57.6367C209.985 57.6367 208.64 56.2716 208.64 54.5878C208.64 52.904 209.985 51.5394 211.645 51.5394C213.305 51.5394 214.651 52.904 214.651 54.5878Z" stroke="#FFD960" stroke-width="1.70287" stroke-miterlimit="10"/>
<path d="M42.1622 14.3237H63.2655" stroke="#FFD960" stroke-width="1.33136" stroke-miterlimit="10"/>
<path d="M354.147 79.3229H372.456" stroke="#FFD960" stroke-width="1.33136" stroke-miterlimit="10"/>
<path d="M200.512 0.665676H232.403" stroke="#FFD960" stroke-width="1.33136" stroke-miterlimit="10"/>
<path d="M255.587 208.367H316.019C323.733 208.367 329.986 202.113 329.986 194.398V33.5405C329.986 25.8256 323.733 19.5714 316.019 19.5714H255.587C247.873 19.5714 241.619 25.8256 241.619 33.5405V194.398C241.619 202.113 247.873 208.367 255.587 208.367Z" fill="#CB9A00"/>
<path d="M246.419 208.367H306.852C314.565 208.367 320.818 202.113 320.818 194.398V33.5405C320.818 25.8256 314.565 19.5714 306.852 19.5714H246.419C238.705 19.5714 232.452 25.8256 232.452 33.5405V194.398C232.452 202.113 238.705 208.367 246.419 208.367Z" fill="#DCA701"/>
<path d="M246.336 204.136H306.935C312.245 204.136 316.55 199.83 316.55 194.519V34.305C316.55 28.9938 312.245 24.688 306.935 24.688H246.336C241.026 24.688 236.72 28.9938 236.72 34.305V194.519C236.72 199.83 241.026 204.136 246.336 204.136Z" fill="white"/>
<path d="M261.821 29.4111H290.794C292.228 29.4111 293.39 28.2481 293.39 26.8134V22.5767H259.225V26.8134C259.225 28.2481 260.387 29.4111 261.821 29.4111Z" fill="#DCA701"/>
<path d="M268.454 25.0573H281.848" stroke="#312220" stroke-width="1.1578" stroke-miterlimit="10" stroke-linecap="round" stroke-linejoin="round"/>
<path d="M312.243 110.07H241.09V56.7746H312.243V110.07Z" fill="#FFECAF"/>
<path d="M316.72 60.8749L228.31 127.633" stroke="white" stroke-width="6.83467" stroke-miterlimit="10"/>
<path d="M337.759 71.8976L249.349 138.656" stroke="white" stroke-width="6.83467" stroke-miterlimit="10"/>
<path d="M295.272 50.1844L217.121 109.196" stroke="white" stroke-width="6.83467" stroke-miterlimit="10"/>
<path d="M246.13 51.659L278.885 99.824C279.995 101.457 279.706 103.662 278.211 104.952L267.697 114.029C262.904 118.168 262.241 122.676 266.198 127.621L283.167 151.51" stroke="white" stroke-width="6.83467" stroke-miterlimit="10"/>
<path d="M300.703 51.5097C300.703 44.7254 293.542 39.6141 286.367 43.3225C285.252 43.8989 283.836 45.291 283.229 46.3898C281.351 49.7871 281.52 53.1374 282.87 55.7847H282.859L282.936 55.9227C282.97 55.988 283.007 56.0516 283.043 56.1157L291.27 70.9961L299.512 56.0915C299.54 56.0419 299.568 55.9917 299.595 55.941L299.634 55.8726H299.629C300.311 54.5673 300.703 53.0851 300.703 51.5097Z" fill="#CB9A00"/>
<path d="M295.449 51.4099C295.449 53.7181 293.578 55.589 291.27 55.589C288.963 55.589 287.092 53.7181 287.092 51.4099C287.092 49.1018 288.963 47.2309 291.27 47.2309C293.578 47.2309 295.449 49.1018 295.449 51.4099Z" fill="white"/>
<path d="M205.797 163.477H196.028C186.439 163.477 178.664 173.54 178.664 185.952C178.664 198.364 186.439 208.427 196.028 208.427H205.797C215.387 208.427 223.161 198.364 223.161 185.952C223.161 173.54 215.387 163.477 205.797 163.477Z" fill="black"/>
<path d="M327.616 163.477H317.848C308.258 163.477 300.484 173.54 300.484 185.952C300.484 198.364 308.258 208.427 317.848 208.427H327.616C337.207 208.427 344.981 198.364 344.981 185.952C344.981 173.54 337.207 163.477 327.616 163.477Z" fill="black"/>
<path d="M281.219 158.032H209.21V190.243H281.219V158.032Z" fill="black"/>
<path d="M265.538 186.414C265.538 198.538 257.944 208.367 248.577 208.367C239.21 208.367 231.616 198.538 231.616 186.414C231.616 174.29 239.21 164.461 248.577 164.461C257.944 164.461 265.538 174.29 265.538 186.414Z" fill="black"/>
<path d="M239.035 208.367H248.577L258.331 198.612L248.577 164.461H239.035V208.367Z" fill="black"/>
<path d="M255.996 186.414C255.996 198.538 248.402 208.367 239.035 208.367C229.668 208.367 222.074 198.538 222.074 186.414C222.074 174.29 229.668 164.461 239.035 164.461C248.402 164.461 255.996 174.29 255.996 186.414Z" fill="#DCA701"/>
<path d="M246.051 185.952C246.051 192.086 242.385 197.059 237.863 197.059C233.341 197.059 229.675 192.086 229.675 185.952C229.675 179.818 233.341 174.846 237.863 174.846C242.385 174.846 246.051 179.818 246.051 185.952Z" fill="#B8B8C2"/>
<path d="M249.863 185.952C249.863 192.086 246.197 197.059 241.675 197.059C237.153 197.059 233.487 192.086 233.487 185.952C233.487 179.818 237.153 174.846 241.675 174.846C246.197 174.846 249.863 179.818 249.863 185.952Z" fill="white"/>
<path d="M159.4 158.032H87.3909V190.243H159.4V158.032Z" fill="black"/>
<path d="M143.718 186.414C143.718 198.538 136.125 208.367 126.757 208.367C117.39 208.367 109.796 198.538 109.796 186.414C109.796 174.29 117.39 164.461 126.757 164.461C136.125 164.461 143.718 174.29 143.718 186.414Z" fill="black"/>
<path d="M117.216 208.367H126.757L136.511 198.612L126.757 164.461H117.216V208.367Z" fill="black"/>
<path d="M134.177 186.414C134.177 198.538 126.583 208.367 117.216 208.367C107.848 208.367 100.255 198.538 100.255 186.414C100.255 174.29 107.848 164.461 117.216 164.461C126.583 164.461 134.177 174.29 134.177 186.414Z" fill="#DCA701"/>
<path d="M124.232 185.952C124.232 192.086 120.566 197.059 116.044 197.059C111.521 197.059 107.855 192.086 107.855 185.952C107.855 179.818 111.521 174.846 116.044 174.846C120.566 174.846 124.232 179.818 124.232 185.952Z" fill="#B8B8C2"/>
<path d="M128.044 185.952C128.044 192.086 124.378 197.059 119.855 197.059C115.334 197.059 111.667 192.086 111.667 185.952C111.667 179.818 115.334 174.846 119.855 174.846C124.378 174.846 128.044 179.818 128.044 185.952Z" fill="white"/>
<path d="M75.9519 190.242V152.103C75.9519 146.664 79.9412 142.029 85.3278 141.28C90.0561 140.623 96.1096 140.051 102.375 140.166C102.375 140.166 138.579 117.91 151.854 117.91L235.025 117.482C246.158 117.33 257.166 119.839 267.134 124.8L304.175 143.234L353.422 154.018C353.422 154.018 363.623 156.786 365.808 163.418C367.994 170.05 367.266 177.337 367.266 177.337H259.102C259.102 177.337 254.228 162.008 238.63 162.008C223.033 162.008 218.808 180.817 219.783 190.242H138.062C138.062 190.242 138.387 162.293 117.265 163.268C96.1425 164.243 97.7673 190.242 97.7673 190.242H75.9519Z" fill="#FFC616"/>
<path d="M76.7545 177.337C73.9049 177.337 71.5938 179.645 71.5901 182.495L71.5868 185.081C71.5868 187.931 73.8974 190.242 76.7481 190.242H97.7672C97.7672 190.242 97.66 183.208 99.5236 177.337H76.7545Z" fill="#CB9A00"/>
<path d="M203.2 106.971H170.923C168.234 106.971 166.054 109.15 166.054 111.839V117.91H208.068V111.839C208.068 109.15 205.888 106.971 203.2 106.971Z" fill="black"/>
<path d="M209.479 106.971H177.202C174.514 106.971 172.334 109.15 172.334 111.839V117.91H214.347V111.839C214.347 109.15 212.168 106.971 209.479 106.971Z" fill="#CB9A00"/>
<path d="M183.89 110.371H181.889V109.422H187.012V110.371H185.012V115.459H183.89V110.371Z" fill="black"/>
<path d="M191.75 113.183L190.612 110.543L189.482 113.183H191.75ZM192.121 114.062H189.103L188.507 115.459H187.352L190.068 109.422H191.172L193.897 115.459H192.724L192.121 114.062Z" fill="black"/>
<path d="M198.816 115.459L197.178 113.164L195.557 115.459H194.281L196.523 112.38L194.4 109.422H195.669L197.212 111.569L198.739 109.422H199.955L197.842 112.337L200.11 115.459H198.816Z" fill="black"/>
<path d="M201.442 109.422H202.563V115.459H201.442V109.422Z" fill="black"/>
<path d="M219.463 141.703L186.597 123.212C183.805 121.642 180.656 120.817 177.453 120.817H157.882C152.818 120.817 147.856 122.248 143.57 124.946L112.344 142.667C111.452 143.174 111.811 144.535 112.836 144.535H218.722C220.278 144.535 220.82 142.466 219.463 141.703Z" fill="black"/>
<path d="M112.138 143.436V156.7C112.138 156.7 140.813 150.924 143.718 183.79H209.21C209.21 183.79 207.459 151.662 219.552 143.826" stroke="black" stroke-width="1.04803" stroke-miterlimit="10" stroke-linecap="round" stroke-linejoin="round"/>
<path d="M165.584 144.535C165.584 144.535 158.752 147.566 162.065 183.79" stroke="black" stroke-width="1.04803" stroke-miterlimit="10" stroke-linecap="round" stroke-linejoin="round"/>
<path d="M176.119 150.955H169.538C168.818 150.955 168.234 150.371 168.234 149.651V149.046C168.234 148.326 168.818 147.743 169.538 147.743H176.119C176.839 147.743 177.422 148.326 177.422 149.046V149.651C177.422 150.371 176.839 150.955 176.119 150.955Z" fill="black"/>
<path d="M126.686 150.955H120.104C119.385 150.955 118.801 150.371 118.801 149.651V149.046C118.801 148.326 119.385 147.743 120.104 147.743H126.686C127.406 147.743 127.989 148.326 127.989 149.046V149.651C127.989 150.371 127.406 150.955 126.686 150.955Z" fill="black"/>
<path d="M199.092 124.56L236.711 144.535H300.666L257.641 123.493C254.041 121.732 250.085 120.817 246.078 120.817H200.023C197.953 120.817 197.263 123.588 199.092 124.56Z" fill="black"/>
<path d="M246.051 147.743H305.251" stroke="black" stroke-width="1.04803" stroke-miterlimit="10" stroke-linecap="round" stroke-linejoin="round"/>
<path d="M211.271 120.817L253.03 144.535H266.965L225.22 120.817H211.271Z" fill="#5E5E5E"/>
<path d="M237.284 120.817L279.042 144.535H283.571L241.826 120.817H237.284Z" fill="#5E5E5E"/>
<path d="M360.921 190.242H264.253C261.402 190.242 259.091 187.931 259.091 185.081L259.102 177.337H367.266L367.18 183.983C367.18 187.44 364.378 190.242 360.921 190.242Z" fill="#FFC616"/>
<path d="M335.828 181.044H318.279V175.735H335.828V181.044Z" fill="white"/>
<path d="M297.467 165.148H349.191" stroke="black" stroke-width="1.04803" stroke-miterlimit="10" stroke-linecap="round" stroke-linejoin="round"/>
<path d="M306.907 169.098H340.902" stroke="black" stroke-width="1.04803" stroke-miterlimit="10" stroke-linecap="round" stroke-linejoin="round"/>
<path d="M306.907 173.032H340.902" stroke="black" stroke-width="1.04803" stroke-miterlimit="10" stroke-linecap="round" stroke-linejoin="round"/>
<path d="M299.626 173.627H277.049C275.141 173.627 273.595 172.08 273.595 170.173V166.932C273.595 165.024 275.141 163.477 277.049 163.477H299.626C301.533 163.477 303.079 165.024 303.079 166.932V170.173C303.079 172.08 301.533 173.627 299.626 173.627Z" fill="white"/>
<path d="M365.842 163.477H348.719C346.811 163.477 345.265 165.024 345.265 166.932V170.173C345.265 172.08 346.811 173.627 348.719 173.627H367.382C367.534 166.812 366.073 163.894 365.842 163.477Z" fill="white"/>
<path d="M273.595 170.173H303.079" stroke="black" stroke-width="1.04803" stroke-miterlimit="10" stroke-linecap="round" stroke-linejoin="round"/>
<path d="M345.265 170.173H367.266" stroke="black" stroke-width="1.04803" stroke-miterlimit="10" stroke-linecap="round" stroke-linejoin="round"/>
<path d="M162.963 23.986C162.963 13.9339 152.354 6.35975 141.723 11.8543C140.07 12.7084 137.972 14.7717 137.072 16.3995C134.29 21.4331 134.54 26.3972 136.54 30.3196H136.525L136.638 30.5244C136.69 30.621 136.743 30.7159 136.796 30.8107L148.987 52.8587L161.199 30.7752C161.241 30.7007 161.282 30.6274 161.323 30.5519L161.379 30.4506H161.372C162.383 28.5161 162.963 26.3201 162.963 23.986Z" fill="#CB9A00"/>
<path d="M155.179 23.8378C155.179 27.2577 152.407 30.0306 148.987 30.0306C145.568 30.0306 142.796 27.2577 142.796 23.8378C142.796 20.4184 145.568 17.6455 148.987 17.6455C152.407 17.6455 155.179 20.4184 155.179 23.8378Z" fill="white"/>
<path d="M97.8853 197.475H106.604L121.023 205.189L96.2303 204.893L97.8853 197.475Z" fill="#101010"/>
<path d="M96.144 208.156L96.2303 204.893L121.022 205.189L120.936 208.452L96.144 208.156Z" fill="white"/>
<path d="M112.629 200.316L109.773 201.096" stroke="white" stroke-width="1.94209" stroke-miterlimit="10" stroke-linecap="round" stroke-linejoin="round"/>
<path d="M109.838 198.883L106.981 199.663" stroke="white" stroke-width="1.94209" stroke-miterlimit="10" stroke-linecap="round" stroke-linejoin="round"/>
<path d="M107.526 185.181H98.64L97.8853 197.475H106.772L107.526 185.181Z" fill="#EBB28B"/>
<path d="M113.341 104.407L107.862 193.522H95.488L97.626 104.407H113.341Z" fill="#FFD960"/>
<path d="M77.8479 197.475H86.5666L100.985 205.189L76.1928 204.893L77.8479 197.475Z" fill="#101010"/>
<path d="M76.1072 208.156L76.1929 204.893L100.985 205.189L100.899 208.452L76.1072 208.156Z" fill="white"/>
<path d="M92.5925 200.316L89.7364 201.096" stroke="white" stroke-width="1.94209" stroke-miterlimit="10" stroke-linecap="round" stroke-linejoin="round"/>
<path d="M89.8005 198.883L86.9439 199.663" stroke="white" stroke-width="1.94209" stroke-miterlimit="10" stroke-linecap="round" stroke-linejoin="round"/>
<path d="M88.372 185.181H79.4856L77.8478 197.475H86.7347L88.372 185.181Z" fill="#EBB28B"/>
<path d="M87.1397 104.407L75.0241 193.522H88.5505L106.16 104.407H87.1397Z" fill="#FFD960"/>
<path d="M96.4471 153.563L103.361 118.57L108.409 115.28" stroke="#171717" stroke-width="0.850184" stroke-miterlimit="10" stroke-linecap="round" stroke-linejoin="round"/>
<path d="M85.3638 117.47L92.9197 111.521" stroke="#171717" stroke-width="0.850184" stroke-miterlimit="10" stroke-linecap="round" stroke-linejoin="round"/>
<path d="M115.67 70.5367L129.436 88.6143C130.958 90.3159 131.053 92.8607 129.661 94.6707C127.906 96.9524 124.54 97.1579 122.521 95.1063L107.726 77.9944C105.698 75.9337 105.632 72.6476 107.576 70.5065H107.577C109.75 68.1143 113.515 68.1288 115.67 70.5367Z" fill="#EBB28B"/>
<path d="M108.927 63.6791C108.927 63.6791 115.657 64.5192 120.809 74.5077L112.895 83.9969L108.927 63.6791Z" fill="#DCA701"/>
<path d="M119.997 89.3562L138.868 77.5194L142.625 81.3987L128.944 95.419L119.997 89.3562Z" fill="#EBB28B"/>
<path d="M141.892 70.1232L151.249 72.8535C151.249 72.8535 151.249 80.1063 142.618 81.4176C142.145 81.4893 140.022 80.6762 139.656 80.3506L138.22 76.2556C137.71 75.5844 137.754 74.6446 138.323 74.023L141.892 70.1232Z" fill="#EBB28B"/>
<path d="M141.118 71.3298L144.428 66.9836C144.919 66.3771 145.76 66.2498 146.317 66.6968C146.851 67.126 146.938 67.9369 146.517 68.5564L143.46 73.3236L141.118 71.3298Z" fill="#E9B0A0"/>
<path d="M145.119 74.7972L149.095 70.8721C149.645 70.3205 150.462 70.2639 150.93 70.7454C151.379 71.2074 151.351 72.0054 150.867 72.5753L147.073 76.9323L145.119 74.7972Z" fill="#E9B0A0"/>
<path d="M143.587 72.1159L147.345 68.4038C147.899 67.8565 148.74 67.8328 149.235 68.3504C149.71 68.8464 149.701 69.6703 149.215 70.2396L145.657 74.4057L143.587 72.1159Z" fill="#E9B0A0"/>
<path d="M149.911 60.7164L151.401 60.8124V70.5933L146.173 78.7811L144.583 78.6511L147.388 68.3661L149.911 60.7164Z" fill="#36438D"/>
<path d="M141.148 74.2925L145.518 78.4122C145.917 78.9094 146.676 78.9029 147.067 78.3988L156.582 66.5221C156.814 66.2218 156.81 65.8013 156.572 65.5053L151.989 61.1192C151.656 60.7056 151.025 60.7116 150.7 61.1305L141.137 73.0702C140.857 73.4309 140.862 73.9367 141.148 74.2925Z" fill="#050907"/>
<path d="M139.694 74.196L144.064 78.3157C144.463 78.8128 145.222 78.8058 145.613 78.3017L155.127 66.4256C155.36 66.1253 155.356 65.7047 155.119 65.4087L150.534 61.0227C150.202 60.6091 149.571 60.6151 149.246 61.034L139.683 72.9737C139.404 73.3344 139.408 73.8402 139.694 74.196Z" fill="white"/>
<path d="M139.229 77.5868C138.717 77.335 137.438 76.0011 137.664 73.9793C137.961 71.3185 139.335 69.3031 139.335 69.3031C139.792 68.4464 140.321 68.0318 141.063 68.1353C141.868 68.248 142.383 69.1042 142.24 69.6989L141.401 71.5568C141.401 71.5568 142.324 73.9124 140.393 77.4827L139.229 77.5868Z" fill="#EBB28B"/>
<path d="M96.2654 61.7629C96.2654 61.7629 91.1753 62.9523 87.5461 64.7828C85.2614 65.9355 85.0081 68.4259 85.2954 70.9686L87.1396 104.407H113.341L115.175 72.1019C115.427 68.558 113.345 65.0847 109.982 63.9417C106.214 62.6606 103.834 61.441 101.829 61.3246L96.2654 61.7629Z" fill="#DCA701"/>
<path d="M114.619 81.9297L115.174 72.1019" stroke="#171717" stroke-width="0.850184" stroke-miterlimit="10" stroke-linecap="round" stroke-linejoin="round"/>
<path d="M96.2654 61.7629L93.2443 62.5933C93.2443 62.5933 95.488 66.9173 103.639 66.1857C109.355 65.6729 107.052 62.8763 107.052 62.8763L104.208 61.8471L96.2654 61.7629Z" fill="#EBB28B"/>
<path d="M71.5049 80.9598L85.0344 100.881L81.3907 104.867L66.4557 90.2323L71.5049 80.9598Z" fill="#EBB28B"/>
<path d="M97.4659 101.788L91.6788 98.8449L92.247 97.5746C92.454 97.1125 92.3257 96.5685 91.9343 96.2472C91.53 95.9151 90.9505 95.9059 90.5359 96.2251L84.8361 100.701L81.3908 104.867C84.5169 107.545 86.5601 107.512 87.7375 106.993C87.8749 107.039 88.0108 107.089 88.1504 107.129L92.9602 108.509C93.4049 108.701 93.9225 108.513 94.1403 108.081C94.2988 107.767 94.3548 107.264 93.4292 106.794L94.3548 107.264C94.8254 107.467 95.3721 107.261 95.5915 106.798C95.7985 106.389 95.5446 105.848 95.0012 105.494L95.7096 105.773C96.2228 105.994 96.8271 105.742 97.0195 105.197C97.1856 104.727 96.9365 104.206 96.4907 103.981L95.468 103.463L96.6826 103.757C97.2417 103.955 97.8654 103.656 98.0487 103.07C98.2061 102.567 97.9355 102.027 97.4659 101.788Z" fill="#EBB28B"/>
<path d="M95.7758 103.608L92.3542 101.994" stroke="#171717" stroke-width="0.552121" stroke-miterlimit="10" stroke-linecap="round" stroke-linejoin="round"/>
<path d="M94.8557 105.434L91.557 104.06" stroke="#171717" stroke-width="0.552121" stroke-miterlimit="10" stroke-linecap="round" stroke-linejoin="round"/>
<path d="M93.7354 106.915L90.9402 105.812" stroke="#171717" stroke-width="0.552121" stroke-miterlimit="10" stroke-linecap="round" stroke-linejoin="round"/>
<path d="M90.4814 75.4684L73.2764 90.3094C71.6709 91.9328 69.1367 92.1819 67.2455 90.9019C64.8617 89.2887 64.4525 85.9411 66.3771 83.8006L82.5557 67.9919C84.4889 65.8411 87.765 65.5759 90.0195 67.3869C92.5392 69.4109 92.7543 73.1705 90.4814 75.4684Z" fill="#EBB28B"/>
<path d="M91.2572 63.2429C91.2572 63.2429 82.2781 64.9979 74.912 74.3378L82.7186 84.5156L93.9112 76.4993L91.2572 63.2429Z" fill="#DCA701"/>
<path d="M86.5181 81.7939L93.0109 77.1436" stroke="#171717" stroke-width="0.850184" stroke-miterlimit="10" stroke-linecap="round" stroke-linejoin="round"/>
<path d="M110.183 33.6915C110.183 33.6915 113.215 36.4008 110.7 42.4836L106.538 34.2711L110.183 33.6915Z" fill="black"/>
<path d="M93.2012 34.4253C93.2012 34.4253 89.661 34.0403 88.8572 39.501C88.0534 44.9621 92.0658 48.2262 96.5198 50.8665L93.2012 34.4253Z" fill="black"/>
<path d="M110.739 41.4053C110.739 47.1457 106.191 51.7992 100.582 51.7992C94.9721 51.7992 90.4243 47.1457 90.4243 41.4053C90.4243 35.6654 94.9721 31.0119 100.582 31.0119C106.191 31.0119 110.739 35.6654 110.739 41.4053Z" fill="black"/>
<path d="M107.144 45.8825C107.597 47.2314 109.058 47.9572 110.407 47.5037C111.756 47.0503 112.481 45.5892 112.028 44.2402C111.575 42.8912 110.114 42.1649 108.765 42.6189C107.416 43.0724 106.69 44.5335 107.144 45.8825Z" fill="#DD8161"/>
<path d="M104.255 51.8623L104.406 63.0758L96.0438 61.6934L96.6514 45.6107L104.255 51.8623Z" fill="#EBB28B"/>
<path d="M104.336 57.544L98.4627 51.7992L104.522 52.8635L104.336 57.544Z" fill="#171717"/>
<path d="M109.526 36.4121C109.526 36.4121 111.788 45.4441 110.767 48.9115C109.746 52.3794 107.053 54.6271 102.557 53.8896C102.557 53.8896 97.371 53.7904 95.8384 46.1429C93.5311 34.6296 103.949 30.4145 109.526 36.4121Z" fill="#EBB28B"/>
<path d="M97.2907 46.1364C97.2907 46.1364 100.61 38.5127 97.005 37.0262C95.9236 36.5803 95.2896 36.3539 94.7785 40.1749C94.2669 43.9954 95.6012 44.6208 95.6012 44.6208L97.2907 46.1364Z" fill="black"/>
<path d="M92.7015 47.012C93.1705 48.4063 94.6799 49.1562 96.074 48.6877C97.4681 48.2186 98.218 46.7085 97.7495 45.3147C97.281 43.9205 95.771 43.1699 94.3769 43.6385C92.9834 44.1075 92.233 45.6177 92.7015 47.012Z" fill="#EBB28B"/>
<path d="M94.0017 45.4215C94.0017 45.4215 95.936 44.8025 96.5198 46.9344" stroke="#171717" stroke-width="0.525888" stroke-miterlimit="10" stroke-linecap="round" stroke-linejoin="round"/>
<path d="M107.67 45.1266L108.248 47.0767C108.276 47.2217 108.186 47.363 108.043 47.3981L107.388 47.5032" stroke="#1E0B07" stroke-width="0.497083" stroke-miterlimit="10" stroke-linecap="round" stroke-linejoin="round"/>
<path d="M103.605 44.5162C103.584 44.8715 103.854 45.1767 104.209 45.1977C104.564 45.2193 104.869 44.9486 104.89 44.5933C104.912 44.2386 104.641 43.9334 104.286 43.9118C103.931 43.8908 103.626 44.1615 103.605 44.5162Z" fill="#171717"/>
<path d="M108.99 44.3712C108.97 44.7006 109.221 44.9831 109.55 45.0031C109.88 45.023 110.163 44.7718 110.182 44.4429C110.202 44.1134 109.951 43.8304 109.621 43.8104C109.292 43.791 109.009 44.0417 108.99 44.3712Z" fill="#171717"/>
<path d="M105.462 40.1549L100.61 41.7061C100.61 41.7061 101.689 40.224 103.089 39.784C104.488 39.344 105.462 40.1549 105.462 40.1549Z" fill="#171717"/>
<path d="M108.184 40.0406L110.739 40.8645C110.739 40.8645 110.3 39.7721 109.563 39.5403C108.825 39.309 108.184 40.0406 108.184 40.0406Z" fill="#171717"/>
<path d="M104.248 47.9868C104.248 47.9868 106.034 48.8969 107.821 48.8969C107.821 48.8969 105.391 50.6616 104.248 47.9868Z" fill="white"/>
<path d="M95.9257 37.1135C95.9257 37.1135 98.625 39.4395 105.307 38.0932C111.988 36.7464 112.252 32.2169 111.447 30.6253C111.447 30.6253 108.988 32.5344 104.937 31.4906C102.678 30.9078 97.6309 28.784 94.6007 31.0587C93.5564 31.8432 92.9494 33.1437 93.2012 34.4253C93.3958 35.4168 94.0578 36.549 95.9257 37.1135Z" fill="black"/>
<path d="M65.514 155.396H48.1208V118.131C48.1208 114.406 51.1402 111.387 54.8648 111.387H58.7705C62.4951 111.387 65.514 114.406 65.514 118.131V155.396Z" stroke="#101010" stroke-width="3.82461" stroke-miterlimit="10"/>
<path d="M51.9564 204.413C51.9564 206.643 50.1483 208.452 47.9181 208.452C45.6879 208.452 43.8798 206.643 43.8798 204.413C43.8798 202.182 45.6879 200.373 47.9181 200.373C50.1483 200.373 51.9564 202.182 51.9564 204.413Z" fill="#101010"/>
<path d="M69.7556 204.413C69.7556 206.643 67.9474 208.452 65.7167 208.452C63.4865 208.452 61.6784 206.643 61.6784 204.413C61.6784 202.182 63.4865 200.373 65.7167 200.373C67.9474 200.373 69.7556 202.182 69.7556 204.413Z" fill="#101010"/>
<path d="M70.6272 203.466H43.0074C39.0666 203.466 35.8719 200.27 35.8719 196.329V149.735C35.8719 145.793 39.0666 142.598 43.0074 142.598H70.6272C74.5685 142.598 77.7632 145.793 77.7632 149.735V196.329C77.7632 200.27 74.5685 203.466 70.6272 203.466Z" fill="#DCA701"/>
<path d="M44.587 194.297H43.0576V152.225H44.587V194.297Z" stroke="#171717" stroke-width="0.817204" stroke-miterlimit="10" stroke-linecap="round" stroke-linejoin="round"/>
<path d="M52.7213 194.297H51.1919V152.225H52.7213V194.297Z" stroke="#171717" stroke-width="0.817204" stroke-miterlimit="10" stroke-linecap="round" stroke-linejoin="round"/>
<path d="M60.8557 194.297H59.3263V152.225H60.8557V194.297Z" stroke="#171717" stroke-width="0.817204" stroke-miterlimit="10" stroke-linecap="round" stroke-linejoin="round"/>
<path d="M68.99 194.297H67.4606V152.225H68.99V194.297Z" stroke="#171717" stroke-width="0.817204" stroke-miterlimit="10" stroke-linecap="round" stroke-linejoin="round"/>
<path d="M9.57261 208.427H373.851" stroke="black" stroke-width="1.30461" stroke-miterlimit="10" stroke-linecap="round" stroke-linejoin="round"/>
</svg>
